<mxfile host="Electron" modified="2024-03-28T22:46:22.573Z" agent="Mozilla/5.0 (Windows NT 10.0; Win64; x64) AppleWebKit/537.36 (KHTML, like Gecko) draw.io/24.1.0 Chrome/120.0.6099.109 Electron/28.1.0 Safari/537.36" etag="xUFNnfnsWJ7NKV2GJKZK" version="24.1.0" type="device">
  <diagram name="Página-1" id="nKVP-QfNnm2D3-vxUSZI">
    <mxGraphModel dx="1420" dy="830" grid="1" gridSize="10" guides="1" tooltips="1" connect="1" arrows="1" fold="1" page="1" pageScale="1" pageWidth="827" pageHeight="1169" background="#CCE5FF" math="0" shadow="0">
      <root>
        <mxCell id="0" />
        <mxCell id="1" parent="0" />
        <mxCell id="-SDjrcaa43Sj-VOMvngT-1" value="&lt;p style=&quot;line-height: 100%;&quot;&gt;&lt;b style=&quot;font-size: 16px;&quot;&gt;&lt;font face=&quot;Comic Sans MS&quot; color=&quot;#000000&quot;&gt;6&lt;br&gt;&lt;br&gt;Hacer un programa para ingresar por teclado tres números y luego determinar e informar con una leyenda aclaratoria si los tres son iguales entre sí, caso contrario no emitir nada.&lt;br&gt;&lt;br&gt;Tener en cuenta:  Si A es igual a B y B es igual a C, entonces A y C son iguales.&lt;/font&gt;&lt;/b&gt;&lt;/p&gt;" style="text;whiteSpace=wrap;html=1;fontFamily=Architects Daughter;fontSource=https%3A%2F%2Ffonts.googleapis.com%2Fcss%3Ffamily%3DArchitects%2BDaughter;" vertex="1" parent="1">
          <mxGeometry x="80" width="630" height="170" as="geometry" />
        </mxCell>
        <mxCell id="-SDjrcaa43Sj-VOMvngT-29" value="" style="group" vertex="1" connectable="0" parent="1">
          <mxGeometry x="150" y="200" width="364" height="420" as="geometry" />
        </mxCell>
        <mxCell id="-SDjrcaa43Sj-VOMvngT-4" value="" style="shape=trapezoid;perimeter=trapezoidPerimeter;whiteSpace=wrap;html=1;fixedSize=1;rounded=0;labelBackgroundColor=none;strokeColor=#121211;strokeWidth=2;align=center;verticalAlign=middle;fontFamily=Helvetica;fontSize=12;fontColor=default;fillColor=#d5e8d4;direction=west;container=1;aspect=fixed;" vertex="1" parent="-SDjrcaa43Sj-VOMvngT-29">
          <mxGeometry x="125" y="70" width="190" height="40" as="geometry">
            <mxRectangle x="-1020" y="-650" width="50" height="40" as="alternateBounds" />
          </mxGeometry>
        </mxCell>
        <mxCell id="-SDjrcaa43Sj-VOMvngT-12" value="&lt;font face=&quot;Comic Sans MS&quot; color=&quot;#000000&quot;&gt;&lt;span style=&quot;font-size: 14px;&quot;&gt;&lt;b&gt;num1, num2. num3&lt;/b&gt;&lt;/span&gt;&lt;/font&gt;" style="text;strokeColor=none;align=center;fillColor=none;html=1;verticalAlign=middle;whiteSpace=wrap;rounded=0;fontFamily=Architects Daughter;fontSource=https%3A%2F%2Ffonts.googleapis.com%2Fcss%3Ffamily%3DArchitects%2BDaughter;aspect=fixed;" vertex="1" parent="-SDjrcaa43Sj-VOMvngT-4">
          <mxGeometry x="25" width="140" height="40" as="geometry" />
        </mxCell>
        <mxCell id="-SDjrcaa43Sj-VOMvngT-9" value="" style="group;aspect=fixed;" vertex="1" connectable="0" parent="-SDjrcaa43Sj-VOMvngT-29">
          <mxGeometry x="190" width="60" height="40" as="geometry" />
        </mxCell>
        <mxCell id="-SDjrcaa43Sj-VOMvngT-2" value="" style="strokeWidth=2;html=1;shape=mxgraph.flowchart.start_2;whiteSpace=wrap;rounded=0;labelBackgroundColor=none;strokeColor=#000000;align=center;verticalAlign=middle;fontFamily=Helvetica;fontSize=12;fontColor=default;fillColor=#d5e8d4;aspect=fixed;" vertex="1" parent="-SDjrcaa43Sj-VOMvngT-9">
          <mxGeometry x="10" width="40" height="40" as="geometry" />
        </mxCell>
        <mxCell id="-SDjrcaa43Sj-VOMvngT-8" value="&lt;b&gt;&lt;font style=&quot;font-size: 17px;&quot; face=&quot;Comic Sans MS&quot; color=&quot;#000000&quot;&gt;I&lt;/font&gt;&lt;/b&gt;" style="text;strokeColor=none;align=center;fillColor=none;html=1;verticalAlign=middle;whiteSpace=wrap;rounded=0;fontFamily=Architects Daughter;fontSource=https%3A%2F%2Ffonts.googleapis.com%2Fcss%3Ffamily%3DArchitects%2BDaughter;aspect=fixed;" vertex="1" parent="-SDjrcaa43Sj-VOMvngT-9">
          <mxGeometry y="5" width="60" height="30" as="geometry" />
        </mxCell>
        <mxCell id="-SDjrcaa43Sj-VOMvngT-11" value="" style="group;aspect=fixed;" vertex="1" connectable="0" parent="-SDjrcaa43Sj-VOMvngT-29">
          <mxGeometry x="190" y="380" width="60" height="40" as="geometry" />
        </mxCell>
        <mxCell id="-SDjrcaa43Sj-VOMvngT-3" value="" style="strokeWidth=2;html=1;shape=mxgraph.flowchart.start_2;whiteSpace=wrap;rounded=0;labelBackgroundColor=none;strokeColor=#000000;align=center;verticalAlign=middle;fontFamily=Helvetica;fontSize=12;fontColor=default;fillColor=#d5e8d4;aspect=fixed;" vertex="1" parent="-SDjrcaa43Sj-VOMvngT-11">
          <mxGeometry x="15" width="30" height="40" as="geometry" />
        </mxCell>
        <mxCell id="-SDjrcaa43Sj-VOMvngT-10" value="&lt;b&gt;&lt;font face=&quot;Comic Sans MS&quot; style=&quot;font-size: 17px;&quot; color=&quot;#000000&quot;&gt;F&lt;/font&gt;&lt;/b&gt;" style="text;strokeColor=none;align=center;fillColor=none;html=1;verticalAlign=middle;whiteSpace=wrap;rounded=0;fontFamily=Architects Daughter;fontSource=https%3A%2F%2Ffonts.googleapis.com%2Fcss%3Ffamily%3DArchitects%2BDaughter;aspect=fixed;" vertex="1" parent="-SDjrcaa43Sj-VOMvngT-11">
          <mxGeometry y="5" width="60" height="30" as="geometry" />
        </mxCell>
        <mxCell id="-SDjrcaa43Sj-VOMvngT-14" value="" style="group;aspect=fixed;" vertex="1" connectable="0" parent="-SDjrcaa43Sj-VOMvngT-29">
          <mxGeometry x="140" y="140" width="160" height="150" as="geometry" />
        </mxCell>
        <mxCell id="-SDjrcaa43Sj-VOMvngT-6" value="" style="rhombus;whiteSpace=wrap;html=1;rounded=0;labelBackgroundColor=none;strokeColor=#0F140C;strokeWidth=2;align=center;verticalAlign=middle;fontFamily=Helvetica;fontSize=12;fontColor=default;fillColor=#d5e8d4;aspect=fixed;" vertex="1" parent="-SDjrcaa43Sj-VOMvngT-14">
          <mxGeometry width="160" height="150" as="geometry" />
        </mxCell>
        <mxCell id="-SDjrcaa43Sj-VOMvngT-13" value="&lt;b&gt;&lt;font color=&quot;#000000&quot; style=&quot;font-size: 14px;&quot; face=&quot;Comic Sans MS&quot;&gt;num1 == num2&lt;/font&gt;&lt;/b&gt;&lt;div&gt;&lt;b&gt;&lt;font color=&quot;#000000&quot; style=&quot;font-size: 14px;&quot; face=&quot;Comic Sans MS&quot;&gt;&amp;amp;&amp;amp;&lt;/font&gt;&lt;/b&gt;&lt;/div&gt;&lt;div&gt;&lt;b&gt;&lt;font color=&quot;#000000&quot; style=&quot;font-size: 14px;&quot; face=&quot;Comic Sans MS&quot;&gt;num2 == num3&lt;/font&gt;&lt;/b&gt;&lt;/div&gt;" style="text;strokeColor=none;align=center;fillColor=none;html=1;verticalAlign=middle;whiteSpace=wrap;rounded=0;fontFamily=Architects Daughter;fontSource=https%3A%2F%2Ffonts.googleapis.com%2Fcss%3Ffamily%3DArchitects%2BDaughter;aspect=fixed;" vertex="1" parent="-SDjrcaa43Sj-VOMvngT-14">
          <mxGeometry x="15" y="55" width="130" height="40" as="geometry" />
        </mxCell>
        <mxCell id="-SDjrcaa43Sj-VOMvngT-18" value="" style="group;aspect=fixed;" vertex="1" connectable="0" parent="-SDjrcaa43Sj-VOMvngT-29">
          <mxGeometry y="260" width="150" height="40" as="geometry" />
        </mxCell>
        <mxCell id="-SDjrcaa43Sj-VOMvngT-5" value="" style="shape=trapezoid;perimeter=trapezoidPerimeter;whiteSpace=wrap;html=1;fixedSize=1;rounded=0;labelBackgroundColor=none;strokeColor=#0F140C;strokeWidth=2;align=center;verticalAlign=middle;fontFamily=Helvetica;fontSize=12;fontColor=default;fillColor=#d5e8d4;aspect=fixed;" vertex="1" parent="-SDjrcaa43Sj-VOMvngT-18">
          <mxGeometry width="150" height="40" as="geometry" />
        </mxCell>
        <mxCell id="-SDjrcaa43Sj-VOMvngT-15" value="&lt;font face=&quot;Comic Sans MS&quot; color=&quot;#000000&quot;&gt;&lt;span style=&quot;font-size: 15px;&quot;&gt;&lt;b&gt;son_iguales&lt;/b&gt;&lt;/span&gt;&lt;/font&gt;" style="text;strokeColor=none;align=center;fillColor=none;html=1;verticalAlign=middle;whiteSpace=wrap;rounded=0;fontFamily=Architects Daughter;fontSource=https%3A%2F%2Ffonts.googleapis.com%2Fcss%3Ffamily%3DArchitects%2BDaughter;aspect=fixed;" vertex="1" parent="-SDjrcaa43Sj-VOMvngT-18">
          <mxGeometry x="25" width="100" height="40" as="geometry" />
        </mxCell>
        <mxCell id="-SDjrcaa43Sj-VOMvngT-19" value="" style="line;strokeWidth=2;direction=south;html=1;hachureGap=4;fontFamily=Architects Daughter;fontSource=https://fonts.googleapis.com/css?family=Architects+Daughter;strokeColor=#000000;aspect=fixed;" vertex="1" parent="-SDjrcaa43Sj-VOMvngT-29">
          <mxGeometry x="66" y="214" width="10" height="46" as="geometry" />
        </mxCell>
        <mxCell id="-SDjrcaa43Sj-VOMvngT-20" value="" style="line;strokeWidth=2;direction=south;html=1;hachureGap=4;fontFamily=Architects Daughter;fontSource=https://fonts.googleapis.com/css?family=Architects+Daughter;strokeColor=#000000;aspect=fixed;" vertex="1" parent="-SDjrcaa43Sj-VOMvngT-29">
          <mxGeometry x="354" y="214" width="10" height="136" as="geometry" />
        </mxCell>
        <mxCell id="-SDjrcaa43Sj-VOMvngT-21" value="" style="line;strokeWidth=2;direction=south;html=1;hachureGap=4;fontFamily=Architects Daughter;fontSource=https://fonts.googleapis.com/css?family=Architects+Daughter;strokeColor=#000000;aspect=fixed;" vertex="1" parent="-SDjrcaa43Sj-VOMvngT-29">
          <mxGeometry x="215" y="40" width="10" height="30" as="geometry" />
        </mxCell>
        <mxCell id="-SDjrcaa43Sj-VOMvngT-22" value="" style="line;strokeWidth=2;direction=south;html=1;hachureGap=4;fontFamily=Architects Daughter;fontSource=https://fonts.googleapis.com/css?family=Architects+Daughter;strokeColor=#000000;aspect=fixed;" vertex="1" parent="-SDjrcaa43Sj-VOMvngT-29">
          <mxGeometry x="215" y="110" width="10" height="30" as="geometry" />
        </mxCell>
        <mxCell id="-SDjrcaa43Sj-VOMvngT-23" value="" style="line;strokeWidth=2;html=1;perimeter=backbonePerimeter;points=[];outlineConnect=0;hachureGap=4;fontFamily=Architects Daughter;fontSource=https://fonts.googleapis.com/css?family=Architects+Daughter;strokeColor=#000000;aspect=fixed;" vertex="1" parent="-SDjrcaa43Sj-VOMvngT-29">
          <mxGeometry x="70" y="345" width="288" height="10" as="geometry" />
        </mxCell>
        <mxCell id="-SDjrcaa43Sj-VOMvngT-24" value="" style="line;strokeWidth=2;html=1;perimeter=backbonePerimeter;points=[];outlineConnect=0;hachureGap=4;fontFamily=Architects Daughter;fontSource=https://fonts.googleapis.com/css?family=Architects+Daughter;strokeColor=#000000;aspect=fixed;" vertex="1" parent="-SDjrcaa43Sj-VOMvngT-29">
          <mxGeometry x="300" y="210" width="60" height="10" as="geometry" />
        </mxCell>
        <mxCell id="-SDjrcaa43Sj-VOMvngT-25" value="" style="line;strokeWidth=2;html=1;perimeter=backbonePerimeter;points=[];outlineConnect=0;hachureGap=4;fontFamily=Architects Daughter;fontSource=https://fonts.googleapis.com/css?family=Architects+Daughter;strokeColor=#000000;aspect=fixed;" vertex="1" parent="-SDjrcaa43Sj-VOMvngT-29">
          <mxGeometry x="70" y="210" width="70" height="10" as="geometry" />
        </mxCell>
        <mxCell id="-SDjrcaa43Sj-VOMvngT-27" value="" style="line;strokeWidth=2;direction=south;html=1;hachureGap=4;fontFamily=Architects Daughter;fontSource=https://fonts.googleapis.com/css?family=Architects+Daughter;strokeColor=#000000;aspect=fixed;" vertex="1" parent="-SDjrcaa43Sj-VOMvngT-29">
          <mxGeometry x="215" y="350" width="10" height="30" as="geometry" />
        </mxCell>
        <mxCell id="-SDjrcaa43Sj-VOMvngT-28" value="" style="line;strokeWidth=2;direction=south;html=1;hachureGap=4;fontFamily=Architects Daughter;fontSource=https://fonts.googleapis.com/css?family=Architects+Daughter;strokeColor=#000000;aspect=fixed;" vertex="1" parent="-SDjrcaa43Sj-VOMvngT-29">
          <mxGeometry x="66" y="300" width="10" height="50" as="geometry" />
        </mxCell>
      </root>
    </mxGraphModel>
  </diagram>
</mxfile>
